<?xml version="1.0" standalone="no"?>
<!DOCTYPE svg PUBLIC "-//W3C//DTD SVG 20010904//EN"
 "http://www.w3.org/TR/2001/REC-SVG-20010904/DTD/svg10.dtd">
<svg version="1.0" xmlns="http://www.w3.org/2000/svg"
 width="2880.000000pt" height="1564.000000pt" viewBox="0 0 2880.000000 2264.000000"
 preserveAspectRatio="xMidYMid meet">
<metadata>
Created by potrace 1.15, written by Peter Selinger 2001-2017
</metadata>
<g transform="translate(0.000000,2264.000000) scale(0.100000,-0.100000)"
fill="#f500fa" stroke="none">
<path d="M8240 19887 c0 -29 -112 -236 -153 -282 -85 -96 -190 -131 -318 -106
-34 7 -136 33 -228 58 -226 61 -337 67 -566 29 -389 -66 -702 -163 -990 -309
-496 -252 -766 -617 -840 -1137 -19 -134 -19 -380 0 -541 32 -272 117 -612
207 -824 51 -121 318 -644 329 -645 3 0 16 23 29 51 29 61 85 114 137 128 89
25 215 5 326 -50 32 -17 61 -28 63 -26 7 6 -37 295 -95 623 -83 471 -103 684
-82 879 29 275 120 476 285 632 129 124 279 209 490 282 312 108 597 107 931
-4 201 -66 257 -79 331 -73 163 11 339 167 457 403 109 217 154 478 112 649
-8 34 -16 75 -17 91 -3 29 -4 28 -47 -35 -73 -108 -151 -198 -220 -256 -36
-30 -69 -54 -73 -54 -4 0 -8 69 -8 153 0 83 -5 179 -10 212 -18 111 -31 165
-41 165 -5 0 -9 -6 -9 -13z"/>
<path d="M8107 17756 c-40 -15 -107 -62 -107 -75 0 -5 29 -11 65 -15 87 -9
244 -49 312 -81 31 -14 58 -23 60 -21 17 16 -103 148 -160 178 -51 25 -123 32
-170 14z"/>
<path d="M7154 17586 c-124 -39 -185 -135 -184 -291 l1 -60 30 57 c16 32 55
84 87 116 55 57 190 153 235 168 22 7 22 8 -3 15 -40 11 -121 9 -166 -5z"/>
<path d="M8227 17140 c-29 -18 -47 -66 -47 -125 0 -170 151 -262 207 -127 28
67 0 185 -55 235 -24 22 -81 31 -105 17z"/>
<path d="M7283 16940 c-32 -13 -53 -62 -53 -125 0 -170 151 -262 207 -127 31
75 -6 203 -70 242 -35 22 -50 23 -84 10z"/>
<path d="M8445 16160 c-115 -119 -383 -243 -627 -292 -148 -29 -368 -31 -473
-4 -88 23 -182 68 -235 113 -23 20 -43 33 -46 31 -9 -10 49 -187 94 -283 89
-191 188 -351 298 -479 152 -179 287 -253 448 -244 241 12 424 270 529 748 30
134 60 360 55 414 l-3 37 -40 -41z"/>
<path d="M8188 14052 c-32 -57 -129 -152 -183 -180 -121 -61 -293 -85 -457
-62 -120 16 -281 61 -376 106 l-76 34 -49 -47 c-180 -176 -327 -539 -432
-1068 -61 -309 -102 -776 -91 -1030 26 -567 213 -2102 337 -2773 22 -119 42
-227 45 -239 7 -24 26 -29 161 -39 l93 -7 4 -31 c15 -95 17 -115 22 -161 3
-27 7 -52 10 -54 2 -2 -1 -10 -7 -17 -9 -12 -130 -11 -184 1 -42 9 -44 -4 -25
-120 58 -353 166 -763 316 -1195 316 -912 452 -1400 484 -1728 6 -59 12 -120
14 -137 22 -165 31 -402 30 -820 0 -436 -6 -580 -39 -1045 -2 -36 -7 -117 -10
-180 -4 -63 -26 -313 -50 -555 -24 -242 -46 -497 -49 -568 -4 -124 -4 -128 20
-157 l25 -29 -25 -93 c-34 -126 -50 -258 -49 -408 0 -181 -13 -170 196 -170
121 0 177 4 185 12 7 7 12 28 12 47 l0 34 208 -7 c114 -4 272 -11 352 -16 188
-12 412 -13 444 0 35 13 47 42 53 130 l6 77 -38 42 c-45 50 -131 92 -253 125
-50 13 -108 34 -129 46 -44 26 -90 79 -77 88 6 4 11 27 13 51 1 24 5 54 7 65
14 72 93 572 99 626 3 36 22 169 41 295 48 315 52 345 69 502 8 76 31 260 50
408 20 149 42 349 50 445 8 97 21 247 29 335 30 327 39 476 39 710 0 223 -2
253 -31 425 -17 102 -33 212 -37 245 -9 90 -103 686 -126 800 -65 322 -161
661 -226 800 -12 28 -23 55 -23 62 0 6 23 14 53 18 96 13 200 45 247 75 26 17
51 30 56 30 5 0 21 -26 36 -57 15 -32 54 -116 88 -188 34 -71 76 -166 94 -210
19 -44 47 -109 63 -145 17 -36 36 -81 43 -100 7 -19 21 -55 33 -80 91 -204
131 -289 250 -530 241 -491 321 -698 373 -971 l25 -134 4 -1055 c4 -1053 -1
-1335 -30 -1690 -25 -300 -46 -425 -107 -623 -16 -54 -28 -101 -25 -104 3 -2
24 -7 46 -10 l40 -6 -7 -46 c-9 -61 -9 -318 1 -353 l7 -28 158 1 c208 2 216 4
222 54 l5 40 140 0 c77 0 298 -3 490 -5 397 -6 397 -6 412 67 15 72 10 146
-12 175 -51 68 -179 120 -380 154 -49 9 -102 23 -117 32 -30 18 -45 45 -28 50
26 9 97 71 123 108 23 32 29 56 37 129 26 263 21 839 -16 1815 -8 223 -19 655
-24 960 -8 521 -14 635 -46 865 -12 92 -97 463 -145 635 -59 215 -140 476
-208 675 -27 77 -60 174 -73 215 -58 169 -107 299 -143 375 -21 44 -62 132
-92 195 -79 167 -139 324 -157 412 -25 122 -21 271 13 439 37 185 44 261 31
328 -5 30 -12 56 -14 59 -4 3 -29 -14 -91 -61 -66 -50 -157 -100 -165 -90 -4
4 -22 55 -40 113 -17 58 -36 113 -41 123 -6 11 -9 20 -7 21 2 1 34 22 71 46
40 25 73 54 79 69 59 146 61 584 8 1271 -11 140 -27 298 -35 351 -13 84 -92
415 -110 460 -5 13 13 27 82 64 127 69 340 203 648 409 149 100 280 186 292
193 28 14 281 197 393 283 306 234 342 267 381 345 31 64 32 68 21 126 -6 33
-21 79 -33 104 -47 93 -180 187 -285 201 -65 8 -166 -17 -216 -54 -21 -15
-117 -87 -215 -161 -98 -74 -203 -153 -233 -175 -30 -23 -59 -46 -65 -52 -46
-50 -747 -512 -938 -618 l-67 -38 -30 66 c-37 82 -37 88 -2 79 15 -5 59 -8 97
-7 129 1 148 15 496 363 168 168 322 327 342 352 l36 45 -45 190 c-25 104 -60
290 -78 413 l-32 225 -86 -115 c-47 -63 -124 -159 -169 -214 -95 -113 -506
-535 -522 -535 -19 0 -190 136 -316 251 -67 61 -254 250 -414 420 -265 282
-296 312 -356 341 -36 18 -86 47 -110 65 -24 18 -47 33 -50 33 -3 0 -18 -22
-33 -48z m1441 -4849 c7 -27 16 -57 19 -68 3 -11 5 -23 4 -27 -1 -5 3 -8 8 -8
6 0 10 -10 10 -22 0 -12 6 -37 13 -56 10 -28 10 -36 -1 -40 -7 -2 -18 -9 -25
-15 -16 -16 -321 -167 -336 -167 -6 0 -19 -4 -29 -9 -9 -5 -28 -13 -42 -19
-14 -6 -46 -20 -72 -31 -27 -11 -48 -24 -48 -28 0 -4 7 -37 16 -73 28 -114 20
-143 -42 -155 -20 -3 -117 -29 -217 -56 -100 -27 -193 -51 -207 -54 -14 -2
-74 -16 -133 -31 -80 -20 -113 -25 -125 -18 -16 10 -48 89 -58 143 -9 44 -23
61 -47 57 -31 -7 -152 -22 -242 -30 -27 -2 -66 -7 -85 -10 -95 -15 -653 -32
-684 -20 -17 7 -41 78 -31 94 3 6 3 15 -1 21 -4 7 -9 30 -11 53 -1 23 -5 56
-8 74 l-5 32 208 0 c114 0 270 5 347 10 141 10 467 48 474 55 2 2 -3 34 -10
70 -11 56 -11 67 2 79 20 19 695 189 719 181 18 -6 50 -84 50 -122 0 -7 6 -13
13 -13 38 0 324 123 447 192 76 43 104 58 110 58 3 0 12 -21 19 -47z"/>
<path d="M8660 8964 c-135 -35 -255 -66 -267 -69 -26 -6 -30 -32 -10 -59 12
-16 18 -16 113 4 133 27 436 108 447 119 15 15 -3 71 -21 70 -9 -1 -127 -30
-262 -65z"/>
<path d="M8990 8680 c-21 -12 -289 -83 -360 -96 -14 -3 -31 -7 -38 -9 -8 -3
-37 -8 -65 -11 -29 -4 -55 -11 -58 -16 -7 -11 8 -78 20 -91 6 -6 167 27 256
53 17 5 86 24 155 41 69 18 129 36 134 40 8 7 -9 76 -23 91 -3 4 -13 3 -21 -2z"/>
</g>
</svg>
