<?xml version="1.0" standalone="no"?>
<!DOCTYPE svg PUBLIC "-//W3C//DTD SVG 20010904//EN"
 "http://www.w3.org/TR/2001/REC-SVG-20010904/DTD/svg10.dtd">
<svg version="1.0" xmlns="http://www.w3.org/2000/svg"
 width="2020.000000pt" height="1200.000000pt" viewBox="0 0 2020.000000 2880.000000"
 preserveAspectRatio="xMidYMid meet">
<metadata>
Created by potrace 1.15, written by Peter Selinger 2001-2017
</metadata>
<g transform="translate(0.000000,2880.000000) scale(0.100000,-0.100000)"
fill="#000000" stroke="none">
<path d="M12737 28793 c-4 -3 -7 -642 -7 -1420 l0 -1413 35 0 35 0 0 1420 0
1420 -28 0 c-16 0 -32 -3 -35 -7z"/>
<path d="M16340 27986 c0 -449 -2 -816 -5 -816 -3 0 -47 7 -97 16 -114 20
-255 14 -348 -15 -36 -12 -65 -21 -66 -21 0 0 -6 17 -12 38 -16 52 -64 106
-118 132 l-45 22 -26 -23 c-14 -13 -36 -46 -49 -74 -44 -93 -27 -195 50 -289
58 -73 117 -165 158 -252 33 -69 42 -99 46 -160 l5 -74 -30 6 c-17 3 -41 1
-53 -6 -19 -10 -22 -18 -17 -50 l5 -38 -112 -75 c-403 -273 -648 -594 -749
-982 -39 -150 -50 -259 -44 -435 5 -171 39 -355 78 -431 30 -59 111 -142 184
-188 212 -134 544 -206 1001 -218 327 -9 558 18 766 87 242 81 426 224 503
392 71 155 95 486 51 694 -84 396 -391 748 -865 990 -78 40 -82 43 -55 49 64
13 114 29 227 71 65 24 131 44 147 44 89 0 126 -72 99 -189 -8 -38 -7 -47 8
-62 51 -48 88 -28 98 54 13 106 -35 196 -130 242 -86 43 -133 39 -293 -24
-139 -54 -227 -79 -239 -68 -11 12 47 64 154 138 110 77 151 116 183 179 27
53 26 86 -4 106 -39 25 -68 15 -80 -28 -18 -63 -68 -120 -162 -186 l-89 -64
-3 63 c-3 57 0 66 32 113 38 54 132 155 233 248 35 32 72 76 83 98 87 170
-112 305 -245 166 -37 -39 -43 -41 -73 -32 l-32 9 -2 826 -3 826 -32 3 -33 3
0 -815z m-15 -2189 l7 -84 72 -16 c88 -19 146 -43 146 -60 0 -25 -58 -182 -66
-180 -5 2 -34 12 -64 23 -76 27 -193 27 -238 0 -57 -35 -63 -96 -13 -144 16
-15 83 -51 150 -81 138 -62 191 -95 244 -154 49 -55 65 -88 78 -168 28 -164
-61 -317 -214 -369 l-48 -16 3 -89 c2 -49 1 -89 -2 -89 -3 0 -44 -3 -91 -7
l-87 -6 -7 86 -7 85 -57 7 c-64 8 -200 50 -219 69 -10 9 -6 29 18 100 16 49
32 91 34 94 3 2 35 -8 72 -23 80 -32 197 -43 263 -25 24 6 58 25 74 41 27 27
29 34 24 82 -4 45 -10 56 -46 89 -23 20 -77 51 -119 68 -253 105 -330 184
-340 350 -8 139 58 244 184 295 l59 24 1 83 c1 46 2 86 3 91 0 4 41 7 90 7
l89 0 7 -83z"/>
<path d="M3020 28490 c0 -165 -2 -300 -4 -300 -3 0 -35 7 -73 16 -122 30 -340
20 -443 -21 -11 -4 -20 5 -29 31 -17 48 -75 110 -124 136 l-39 20 -29 -28
c-50 -48 -71 -108 -67 -189 4 -78 14 -99 118 -240 101 -135 168 -297 158 -380
-2 -23 -8 -29 -23 -28 -57 7 -92 -28 -74 -74 7 -19 -4 -29 -104 -96 -639 -427
-913 -1041 -762 -1711 35 -154 77 -221 189 -300 124 -88 279 -148 490 -191
212 -42 313 -50 641 -50 275 0 324 3 431 22 358 65 606 207 730 418 44 76 64
163 81 348 15 163 15 186 1 290 -63 442 -352 803 -857 1070 l-104 55 59 12
c33 7 117 35 189 62 139 54 186 58 226 22 30 -27 42 -87 29 -148 -13 -62 -8
-79 27 -95 41 -19 60 -6 72 51 33 152 -83 290 -244 290 -28 0 -91 -20 -185
-56 -138 -55 -230 -79 -230 -59 0 15 59 66 160 138 122 86 145 108 175 169 32
63 32 91 1 112 -41 26 -66 15 -86 -39 -10 -27 -29 -63 -43 -80 -27 -35 -177
-147 -197 -147 -9 0 -11 17 -8 63 3 49 10 71 35 107 33 49 118 138 226 239
125 115 141 216 47 295 -25 20 -42 26 -81 26 -60 0 -97 -18 -137 -66 -29 -35
-31 -36 -58 -22 l-29 13 0 308 0 307 -27 0 -28 0 0 -300z m-40 -1634 c0 -29 3
-67 6 -84 6 -28 11 -32 63 -43 79 -16 161 -48 161 -63 0 -6 -13 -50 -29 -96
-18 -56 -33 -84 -42 -83 -8 1 -39 11 -69 22 -109 40 -235 21 -269 -40 -29 -53
8 -109 103 -153 268 -126 309 -154 361 -247 28 -50 30 -61 30 -159 0 -95 -3
-110 -29 -163 -33 -68 -101 -127 -177 -154 l-49 -18 0 -87 0 -87 -32 -6 c-18
-3 -60 -5 -93 -3 l-60 3 -3 83 -3 82 -32 0 c-76 0 -257 60 -257 84 0 7 13 50
29 96 18 56 33 84 42 83 8 -1 46 -14 84 -27 138 -50 292 -29 330 45 38 73 -2
142 -113 195 -42 20 -113 54 -157 74 -99 48 -152 92 -190 161 -28 50 -30 62
-30 154 0 84 4 107 22 141 30 56 104 119 167 143 l51 19 -4 85 -3 85 28 5 c16
2 59 5 97 6 l67 1 0 -54z"/>
<path d="M6780 27150 c0 -1014 -4 -1640 -9 -1640 -6 0 -40 8 -78 17 -96 23
-308 24 -385 0 -32 -9 -63 -20 -71 -23 -9 -3 -19 10 -31 39 -20 54 -72 108
-128 133 l-41 18 -24 -29 c-62 -74 -83 -173 -54 -257 7 -20 41 -76 77 -124
140 -188 217 -371 188 -447 -4 -11 -15 -14 -39 -10 -28 4 -36 1 -50 -21 -14
-21 -16 -32 -7 -50 10 -22 6 -27 -49 -61 -207 -127 -469 -370 -585 -540 -192
-282 -291 -626 -269 -940 9 -134 50 -338 80 -400 88 -181 327 -305 710 -370
407 -68 883 -58 1183 26 306 86 523 265 593 489 31 98 51 359 39 492 -35 375
-253 706 -637 968 -56 39 -152 97 -214 129 -105 56 -111 60 -83 66 73 17 145
40 236 76 124 49 168 51 210 8 l31 -30 -6 -89 c-6 -96 3 -117 53 -122 33 -4
50 32 50 107 0 75 -24 128 -77 176 -90 81 -166 83 -358 6 -141 -56 -225 -79
-225 -60 0 16 79 85 160 140 123 83 180 150 196 231 5 25 2 33 -19 47 -41 26
-68 16 -84 -31 -8 -23 -30 -61 -51 -84 -36 -43 -146 -130 -163 -130 -5 0 -9
34 -9 75 l0 74 58 68 c33 38 98 104 146 147 119 108 159 192 125 259 -61 119
-200 124 -280 9 -11 -14 -22 -20 -33 -16 -15 6 -16 136 -16 1660 l0 1654 -30
0 -30 0 0 -1640z m-60 -2992 c0 -40 4 -78 8 -84 4 -6 30 -16 58 -22 63 -14
164 -51 164 -61 0 -10 -59 -183 -64 -188 -2 -3 -24 6 -48 18 -60 32 -207 38
-258 12 -58 -30 -66 -100 -15 -147 26 -24 34 -29 205 -109 193 -92 259 -172
268 -327 9 -153 -59 -268 -193 -326 l-65 -28 0 -87 0 -87 -73 -7 c-115 -11
-112 -13 -115 83 -3 77 -4 82 -25 82 -74 1 -267 61 -267 84 0 11 50 178 56
184 1 2 33 -9 71 -24 58 -24 82 -28 168 -29 119 0 164 17 190 72 36 75 -2 136
-118 192 -45 21 -116 55 -157 74 -99 47 -152 94 -189 169 -27 52 -31 72 -31
138 0 153 60 241 202 294 l46 18 -5 73 c-8 106 -10 105 97 105 l90 0 0 -72z"/>
<path d="M12763 25183 l-33 -13 0 -1314 0 -1313 -77 20 c-61 16 -111 20 -233
20 -143 1 -161 -1 -238 -27 -46 -15 -85 -26 -87 -24 -1 2 -10 26 -19 55 -22
65 -90 144 -152 174 l-46 22 -24 -29 c-13 -16 -38 -57 -56 -92 -27 -54 -31
-75 -32 -140 -1 -101 17 -146 120 -302 93 -140 175 -304 198 -396 16 -61 22
-185 10 -197 -3 -3 -17 -1 -30 5 -53 25 -100 -32 -76 -94 10 -27 8 -30 -46
-66 -172 -113 -406 -326 -547 -497 -111 -135 -183 -244 -259 -394 -109 -216
-174 -421 -212 -666 -21 -135 -23 -463 -5 -580 51 -320 88 -420 194 -527 192
-194 515 -311 1022 -370 64 -7 226 -13 390 -13 284 1 410 11 585 51 500 114
813 390 878 774 39 231 40 573 2 752 -109 520 -474 975 -1033 1290 l-95 54 67
16 c64 15 99 28 305 113 95 40 134 42 183 10 50 -33 66 -124 42 -236 -11 -52
-11 -53 20 -81 69 -62 106 -21 106 117 0 72 -5 100 -23 141 -47 103 -155 177
-262 178 -45 0 -76 -9 -175 -53 -158 -70 -280 -113 -311 -109 l-25 3 30 41
c17 23 68 70 113 105 159 125 183 146 221 195 20 27 46 78 57 113 18 58 19 66
5 87 -16 25 -51 38 -81 32 -12 -2 -25 -24 -39 -63 -35 -102 -85 -158 -246
-278 -20 -15 -39 -27 -42 -27 -4 0 -7 38 -7 83 0 80 2 87 38 143 51 79 174
223 265 311 154 148 179 300 66 397 -73 62 -164 55 -234 -18 -22 -22 -45 -49
-50 -60 -10 -17 -13 -17 -48 -3 l-37 16 -2 1339 -3 1338 -32 -13z m-75 -4450
l3 -112 37 -6 c65 -11 145 -36 193 -61 l48 -24 -25 -77 c-13 -43 -29 -97 -35
-121 -6 -23 -15 -44 -18 -47 -4 -2 -29 7 -57 20 -190 90 -392 32 -369 -107 11
-63 62 -105 224 -186 78 -39 164 -87 190 -106 143 -106 198 -227 189 -422 -6
-126 -31 -194 -99 -269 -55 -60 -97 -88 -167 -115 l-47 -18 4 -121 3 -121
-101 0 c-56 0 -104 -1 -108 -2 -9 -4 -10 2 -18 123 l-7 97 -61 7 c-73 8 -200
48 -250 78 l-35 22 35 120 c19 66 38 123 42 127 3 4 36 -8 73 -26 160 -81 369
-67 428 28 24 39 27 111 6 159 -21 51 -78 93 -227 167 -156 77 -223 122 -274
184 -47 58 -73 119 -87 210 -33 211 71 396 255 456 l39 12 -3 117 -4 116 90 6
c144 9 130 21 133 -108z"/>
<path d="M15589 18227 c-55 -21 -91 -50 -139 -113 -38 -48 -44 -64 -48 -113
-4 -51 -1 -61 23 -89 15 -18 42 -39 60 -46 21 -9 39 -28 51 -52 41 -83 186
-159 428 -222 l139 -36 -6 -80 c-8 -113 -68 -284 -100 -286 -5 0 -33 17 -63
38 l-54 37 6 51 c19 163 -148 260 -284 164 -35 -24 -46 -28 -61 -19 -15 10
-17 23 -14 83 3 60 0 77 -19 111 -35 59 -79 85 -146 85 -127 0 -224 -122 -192
-242 22 -81 84 -138 150 -138 30 0 30 0 14 -25 -9 -14 -13 -32 -9 -45 7 -21
72 -76 81 -68 2 3 -11 17 -31 32 -51 39 -48 69 11 104 26 15 66 44 89 65 39
34 44 36 58 22 14 -13 14 -19 1 -50 -56 -135 56 -285 191 -255 37 8 115 54
115 68 0 4 7 16 15 26 14 19 16 18 70 -18 30 -20 55 -38 55 -40 0 -2 -25 -43
-55 -91 -30 -48 -57 -95 -60 -104 -3 -12 -28 -24 -68 -36 -34 -9 -69 -19 -78
-22 -11 -3 -18 4 -22 24 -3 16 -24 48 -46 70 -40 39 -54 47 -202 117 -41 19
-95 53 -120 74 -93 82 -155 93 -212 39 -43 -40 -60 -113 -55 -231 6 -149 86
-259 246 -339 78 -39 93 -42 177 -45 78 -3 103 0 163 21 81 28 186 99 229 154
39 50 44 65 27 87 -12 17 -9 28 27 97 63 121 168 206 206 168 24 -24 147 196
179 320 25 102 16 267 -20 351 -72 167 -207 272 -476 370 -101 36 -180 46
-231 27z m-163 -516 c117 -53 117 -229 1 -304 -75 -49 -176 -29 -225 43 -20
29 -23 45 -20 96 5 78 38 132 100 163 53 26 90 26 144 2z m383 -239 c56 -40
77 -135 47 -205 -20 -48 -75 -94 -127 -108 -40 -11 -53 -10 -93 5 -101 39
-132 163 -64 261 20 31 28 35 67 35 36 0 49 -6 77 -34 19 -19 34 -28 34 -22 0
31 -83 81 -117 70 -14 -4 -14 -3 2 7 49 31 125 27 174 -9z m-482 -338 c70 -58
99 -76 168 -106 l40 -18 -40 6 c-39 7 -112 40 -185 85 l-35 21 35 -31 c60 -53
151 -93 205 -90 42 3 50 0 72 -25 28 -32 25 -60 -8 -108 -28 -39 -69 -58 -124
-58 -86 0 -151 46 -138 98 4 18 -2 30 -26 53 l-33 29 -25 -20 c-52 -41 -85
-15 -85 67 0 25 6 59 13 76 39 97 68 101 166 21z"/>
<path d="M15771 16587 c-11 -29 -77 -89 -183 -167 -45 -34 -85 -64 -87 -65 -3
-4 47 -161 56 -178 4 -7 331 304 341 323 4 8 -96 110 -108 110 -6 0 -14 -10
-19 -23z"/>
<path d="M15305 15836 c-219 -103 -348 -501 -400 -1231 -4 -49 -8 -201 -8
-337 -2 -236 -1 -248 18 -262 11 -9 76 -54 145 -101 69 -47 168 -117 220 -154
86 -63 96 -68 108 -53 23 29 112 219 152 324 28 73 39 95 45 81 13 -33 19
-1095 6 -1293 -22 -350 -62 -569 -126 -687 l-23 -42 19 -73 c36 -136 107 -472
133 -623 33 -192 81 -575 73 -575 -1 0 -77 40 -167 90 l-165 90 -499 0 -499 0
6 703 6 704 -155 99 -154 99 1 167 c1 91 -2 172 -6 178 -6 10 -327 12 -1524
10 -2055 -5 -2051 -5 -2051 18 0 11 -20 29 -50 47 -27 17 -50 33 -50 38 0 4
-10 7 -22 7 -22 -1 -21 -2 7 -23 17 -12 46 -38 65 -57 l35 -35 -5 -220 c-4
-196 -6 -216 -17 -179 -7 23 -13 62 -13 88 l0 46 -430 0 c-236 0 -430 -3 -430
-7 1 -5 75 -69 165 -143 l165 -135 0 -142 c0 -79 -3 -143 -6 -143 -3 0 -76 47
-162 105 -135 91 -161 106 -191 103 l-35 -3 69 -51 c39 -28 127 -92 198 -143
85 -63 127 -99 127 -112 0 -17 8 -19 65 -19 43 0 67 -4 70 -12 3 -7 4 -237 3
-511 l-3 -497 -202 180 c-155 139 -203 187 -205 208 -3 25 -7 27 -52 30 -28 2
-47 -1 -45 -6 2 -6 119 -128 259 -273 l255 -262 145 6 c80 3 154 9 165 13 11
5 16 4 12 -3 -3 -5 12 -27 33 -48 l40 -39 0 -409 c0 -253 -4 -407 -9 -405 -6
2 -46 36 -90 76 -67 60 -81 79 -81 103 0 37 -17 44 -83 32 l-52 -9 155 -157
154 -157 2323 0 2323 0 0 465 0 465 195 0 195 0 0 -465 0 -465 59 0 c33 0 62
-4 65 -9 3 -4 63 -30 133 -56 293 -109 451 -170 498 -191 27 -13 53 -20 57
-16 17 17 90 429 133 747 74 559 85 1041 31 1302 -14 63 -13 66 39 291 49 210
141 560 202 762 72 242 190 510 256 583 23 25 48 40 88 51 65 18 145 83 183
150 50 86 68 162 73 312 9 229 -19 319 -153 496 -300 396 -596 743 -877 1027
-451 456 -745 625 -932 537z m-4513 -2992 c46 -22 74 -69 76 -129 4 -86 -50
-146 -135 -151 -40 -2 -48 1 -83 36 -46 46 -58 93 -40 153 14 50 25 64 65 89
37 22 74 23 117 2z m3081 -4 c4 0 7 -52 7 -115 l0 -115 -505 0 -505 0 0 113
c0 63 2 116 4 118 3 3 752 2 999 -1z m-3643 -650 l0 -200 -95 0 -95 0 0 200 0
200 95 0 95 0 0 -200z m2523 -377 c4 -91 7 -343 7 -560 l0 -393 -60 0 -60 0 0
393 c0 217 3 469 7 560 l6 167 47 0 47 0 6 -167z m-801 -503 l3 -450 -52 0
-53 0 0 450 0 450 50 0 50 0 2 -450z m-1152 -1010 l0 -100 -100 0 -100 0 0
100 0 100 100 0 100 0 0 -100z"/>
<path d="M5855 15178 c-2 -7 -81 -294 -175 -638 -93 -344 -184 -656 -201 -695
-17 -38 -32 -77 -33 -86 0 -9 56 -65 129 -129 194 -168 305 -280 305 -308 0
-131 -345 -487 -549 -566 -27 -11 -65 -16 -100 -14 -54 2 -59 0 -165 -70 -60
-40 -114 -72 -119 -72 -5 0 -42 23 -83 52 l-75 51 91 92 c60 60 88 95 80 100
-10 6 -39 -19 -40 -35 0 -3 -49 -6 -109 -7 l-109 -1 20 46 c34 76 22 148 -46
287 -81 165 -176 260 -301 301 -19 6 -19 7 4 15 49 19 139 80 156 105 30 46
-12 94 -100 114 l-30 7 50 23 c143 65 285 166 285 202 0 9 -9 26 -19 39 l-19
23 104 42 c124 49 195 95 223 145 45 80 16 144 -50 109 -18 -10 -19 -7 -19 64
0 83 -25 176 -60 225 -46 65 -130 85 -235 57 -139 -37 -181 -100 -112 -169
l34 -33 -61 13 c-81 17 -130 16 -201 -2 -127 -34 -261 -160 -240 -226 9 -27
58 -50 120 -56 l53 -6 -64 -74 c-109 -125 -194 -272 -194 -337 0 -35 -10 -37
-45 -10 -49 37 -95 42 -130 12 -39 -34 -30 -69 26 -96 l41 -20 -30 -16 c-40
-21 -62 -53 -62 -91 0 -56 38 -69 120 -40 24 8 45 13 47 11 3 -2 9 -37 14 -78
31 -248 182 -415 447 -494 11 -3 9 -12 -7 -38 -26 -41 -27 -68 -2 -90 22 -20
43 -22 89 -12 56 13 40 -23 -34 -78 -173 -128 -321 -405 -399 -751 -28 -125
-42 -257 -49 -495 -3 -91 -8 -241 -11 -335 -11 -318 -35 -1230 -35 -1307 l0
-78 40 0 40 0 1 -212 c0 -117 2 -224 4 -238 2 -14 9 -95 15 -180 16 -235 78
-767 106 -916 l6 -31 -69 33 c-37 19 -97 41 -133 50 -63 16 -282 32 -346 26
-30 -3 -31 -5 -40 -68 l-9 -66 -69 52 c-75 58 -97 65 -222 75 -80 7 -84 6 -84
-13 0 -11 -3 -33 -6 -49 -6 -30 -6 -30 50 -37 67 -9 64 14 36 -256 -27 -254
-26 -278 5 -385 52 -179 152 -337 203 -321 32 10 39 52 18 106 -40 102 -46
143 -46 310 0 91 3 202 7 248 6 88 13 100 71 117 23 7 24 6 17 -48 l-7 -55 77
-57 c324 -240 610 -304 829 -187 61 33 163 130 170 163 3 13 44 445 91 959 48
514 89 943 93 953 10 26 1139 -1280 1146 -1326 3 -18 40 -390 82 -827 43 -437
81 -799 86 -805 4 -5 38 -14 75 -20 l68 -11 8 -44 c5 -25 5 -87 1 -140 -5 -52
-9 -101 -9 -109 0 -9 31 -25 84 -42 47 -16 85 -28 86 -26 1 1 6 14 11 28 l9
26 184 -76 184 -76 -1304 -3 -1304 -2 -150 -83 -150 -82 -3 -369 c-2 -277 1
-372 10 -377 6 -4 53 -7 105 -7 l93 0 0 374 0 374 160 0 160 0 2 -372 3 -373
1859 2 1860 2 123 123 c120 120 123 123 96 129 -58 13 -73 10 -73 -14 0 -24
-131 -163 -143 -151 -3 3 -6 152 -7 329 l0 323 89 80 c49 44 87 83 83 86 -3 3
-265 6 -582 6 l-576 0 -304 195 c-301 192 -305 195 -337 252 -18 32 -33 63
-33 69 0 6 17 16 38 22 20 6 79 32 130 57 89 43 93 46 88 73 -3 15 -55 358
-116 762 -61 404 -127 841 -146 970 -33 219 -38 237 -63 265 -291 315 -1141
1256 -1141 1262 0 4 41 35 90 68 49 33 90 65 90 71 0 6 -29 110 -65 232 -35
121 -94 324 -130 451 l-66 230 160 343 c88 189 166 354 174 368 10 21 22 26
67 31 150 16 347 188 626 545 89 114 344 488 344 505 0 24 -33 70 -77 109 -39
34 -281 166 -289 157 -1 -1 -58 -87 -128 -190 -276 -413 -448 -614 -542 -633
-31 -6 -32 -5 -35 33 -4 33 5 57 49 139 349 650 511 960 530 1016 55 164 89
493 101 973 8 336 5 485 -9 485 -13 0 -293 40 -318 46 -13 2 -24 -1 -27 -8z
m2185 -9448 l0 -80 -80 0 -80 0 0 80 0 80 80 0 80 0 0 -80z"/>
<path d="M9562 14422 c2 -5 40 -42 86 -82 l82 -74 0 -328 c0 -180 -3 -328 -6
-328 -3 0 -37 28 -75 63 -46 41 -69 69 -69 85 0 19 -5 22 -45 22 -25 0 -45 -3
-45 -6 0 -3 53 -61 118 -130 l117 -124 1868 0 1867 0 0 336 0 336 -27 -6 c-16
-4 -116 -35 -223 -69 -194 -63 -196 -63 -245 -50 -65 18 -158 12 -184 -11 -14
-13 -20 -34 -23 -86 -4 -76 -24 -115 -71 -138 -38 -18 -46 -9 -34 37 18 66
-39 300 -63 261 -5 -8 -10 -28 -10 -43 0 -73 -66 -267 -90 -267 -24 0 -10 174
26 315 7 28 6 29 -10 16 -26 -21 -51 -77 -70 -155 -22 -89 -62 -173 -88 -187
-61 -33 -63 111 -5 301 20 63 34 116 32 118 -2 2 -24 -24 -49 -57 -43 -59 -56
-90 -91 -213 -8 -32 -20 -58 -26 -58 -5 0 -17 17 -26 37 -24 58 -12 137 33
230 51 103 51 102 18 72 -73 -67 -143 -88 -164 -48 -10 18 -3 28 62 92 42 42
99 86 136 105 34 18 62 35 62 38 0 2 -624 4 -1386 4 -762 0 -1384 -4 -1382 -8z
m468 -542 l0 -80 -80 0 -80 0 0 80 0 80 80 0 80 0 0 -80z"/>
<path d="M13775 14295 c-58 -19 -65 -23 -37 -24 l32 -1 0 -375 0 -375 105 0
105 0 0 373 0 374 -49 26 c-58 32 -65 32 -156 2z"/>
<path d="M14173 13853 c-7 -3 -13 -21 -13 -41 0 -77 77 -170 259 -314 201
-160 365 -241 519 -256 l67 -7 11 -68 c6 -37 13 -69 15 -71 6 -5 355 -106 366
-106 8 0 -36 362 -51 425 -3 12 -22 29 -43 39 -49 23 -221 136 -296 193 l-57
44 -102 -17 c-74 -12 -130 -15 -207 -11 -155 9 -229 36 -334 122 -60 48 -113
76 -134 68z"/>
<path d="M5378 13396 c-98 -35 -123 -76 -115 -187 3 -42 10 -86 16 -97 11 -21
11 -21 54 -2 61 27 116 34 165 20 l43 -11 95 77 c107 87 106 84 18 140 -60 39
-160 74 -206 74 -18 -1 -50 -7 -70 -14z"/>
<path d="M16010 9275 c-174 -47 -260 -75 -332 -110 -93 -45 -96 -48 -87 -72
33 -88 -33 -167 -182 -217 -76 -25 -240 -58 -249 -49 -15 14 -3 212 16 276 5
16 -105 17 -2215 17 l-2221 0 0 24 c0 18 -15 33 -64 66 -36 23 -67 47 -69 53
-2 8 -10 9 -26 1 -22 -9 -20 -13 49 -63 40 -29 70 -54 68 -56 -2 -2 -35 -7
-72 -9 -38 -3 -70 -7 -72 -9 -3 -2 -4 -117 -4 -255 0 -139 -3 -252 -6 -252
-14 0 -44 98 -44 146 l0 54 -215 0 c-126 0 -215 -4 -215 -9 0 -5 15 -20 33
-32 17 -13 103 -82 190 -153 l157 -131 0 -163 c0 -128 -3 -162 -12 -156 -62
37 -316 210 -325 222 -14 17 -113 30 -113 15 0 -6 32 -32 71 -59 39 -27 123
-87 187 -133 65 -46 134 -96 154 -110 27 -19 37 -33 38 -53 l0 -28 80 0 c55 0
82 -4 85 -12 3 -7 4 -267 3 -577 l-3 -565 -237 213 c-184 165 -238 219 -238
237 0 22 -4 24 -51 24 l-51 0 139 -147 c76 -81 173 -181 216 -221 l77 -75 0
-330 0 -330 -72 65 c-50 45 -74 74 -76 92 -3 24 -7 26 -53 26 -27 0 -49 -3
-49 -6 0 -3 55 -62 122 -130 l122 -124 1863 0 1863 0 0 295 0 295 160 0 160 0
0 -295 0 -295 105 0 105 0 0 290 0 290 385 0 385 0 2 513 c1 281 2 674 2 872
l1 360 -99 65 -98 65 128 7 c198 10 353 45 442 102 36 22 96 84 117 120 8 13
34 20 109 28 l100 11 42 -49 43 -49 134 67 135 67 -9 48 c-41 222 -145 365
-264 362 -16 0 -136 -29 -265 -64z m-4999 -284 c17 -10 42 -35 55 -55 35 -51
33 -140 -5 -183 -43 -49 -77 -66 -134 -66 -73 0 -77 1 -128 46 -81 71 -57 208
46 265 33 19 130 14 166 -7z m3927 -129 l-3 -127 -637 -3 -638 -2 0 135 0 135
623 2 c342 2 630 -1 640 -5 16 -7 17 -21 15 -135z m-4088 -602 l0 -230 -110 0
-110 0 0 230 0 230 110 0 110 0 0 -230z m2850 -870 l0 -630 -60 0 -60 0 0 630
0 630 60 0 60 0 0 -630z m-900 -120 l0 -510 -60 0 -60 0 0 510 0 510 60 0 60
0 0 -510z m-2030 -740 l0 -80 -80 0 -80 0 0 80 0 80 80 0 80 0 0 -80z"/>
<path d="M11081 5687 c14 -12 42 -35 62 -52 l37 -30 0 -195 c1 -274 2 -259
-12 -235 -7 11 -14 49 -17 85 l-6 65 -428 3 c-274 1 -428 -1 -425 -7 1 -6 76
-71 166 -146 l162 -135 0 -141 c0 -120 -2 -140 -15 -136 -21 9 -256 166 -281
189 -16 14 -33 18 -64 16 l-43 -3 49 -34 c258 -181 354 -256 354 -278 0 -22 4
-23 70 -23 l70 0 0 -505 c0 -278 -2 -505 -5 -505 -3 0 -95 81 -205 180 -119
108 -202 190 -206 204 -4 19 -15 26 -46 31 -21 4 -42 4 -45 1 -7 -7 180 -206
376 -400 l139 -139 149 6 148 6 43 -37 42 -38 -2 -414 -3 -413 -87 82 c-68 64
-88 89 -88 110 0 26 -1 26 -60 23 -33 -2 -60 -7 -60 -11 0 -3 69 -75 153 -159
l152 -152 2318 0 2317 0 0 465 0 465 200 0 200 0 0 -465 0 -465 130 0 130 0
-2 467 -3 468 -175 97 -175 97 -507 1 -508 0 0 709 0 708 -133 86 c-73 47
-140 89 -150 93 -15 5 -17 25 -17 185 l0 179 -1790 0 c-1769 0 -1790 0 -1790
20 0 12 -18 31 -47 51 -27 18 -49 36 -51 41 -2 4 -13 8 -25 8 -21 -1 -21 -1 4
-23z m443 -191 c69 -29 107 -129 74 -197 -9 -20 -31 -48 -47 -62 -16 -14 -27
-28 -23 -32 4 -5 1 -5 -6 -1 -8 5 -33 9 -57 11 -58 4 -99 37 -115 93 -23 78 9
160 74 188 40 17 59 17 100 0z m3089 -113 c-1 -60 -2 -111 -2 -115 -1 -5 -226
-8 -501 -8 l-500 0 0 115 0 115 503 0 503 0 -3 -107z m-3643 -543 l0 -200 -37
-1 c-21 0 -64 -1 -96 -2 l-57 -2 0 203 0 202 95 0 95 0 0 -200z m2523 -377 c4
-91 7 -343 7 -560 l0 -393 -60 0 -60 0 0 393 c0 217 3 469 7 560 l6 167 47 0
47 0 6 -167z m-803 -503 l0 -450 -50 0 -50 0 0 450 0 450 50 0 50 0 0 -450z
m-1152 -1007 l-3 -98 -100 0 -100 0 -3 98 -3 97 106 0 106 0 -3 -97z"/>
<path d="M7508 4867 c-34 -24 -58 -48 -58 -59 0 -17 -69 -18 -1787 -20 l-1788
-3 -2 -40 c-1 -22 -2 -101 -2 -175 l-2 -135 -149 -95 -150 -95 0 -707 0 -708
-502 0 -503 -1 -175 -97 -175 -97 -3 -468 -2 -467 125 0 125 0 0 465 0 465
200 0 200 0 0 -465 0 -465 2323 0 2322 0 100 103 c55 56 125 128 155 160 l54
57 -67 0 c-67 0 -67 0 -67 -28 0 -22 -18 -44 -90 -110 l-90 -83 0 412 0 413
41 42 42 43 156 -6 156 -5 253 260 c138 143 252 264 252 269 0 5 -20 10 -45
12 -43 2 -45 1 -45 -26 0 -29 -34 -61 -377 -366 l-43 -39 0 511 0 511 75 0
c73 0 75 1 75 24 0 20 26 43 130 120 71 53 132 96 135 96 12 0 134 94 130 100
-7 12 -88 -1 -100 -15 -11 -13 -281 -195 -290 -195 -3 0 -5 64 -5 143 l0 143
148 122 c81 67 156 128 166 135 17 12 10 15 -59 20 -43 4 -237 7 -430 7 -396
0 -365 7 -365 -78 -1 -26 -7 -60 -15 -77 -14 -31 -14 -22 -17 370 0 53 -1 52
98 132 60 49 13 41 -58 -10z m-280 -166 c1 -1 3 0 5 2 2 1 18 -15 37 -36 53
-61 53 -162 -1 -227 -18 -21 -29 -25 -84 -25 -54 0 -67 4 -90 25 -59 55 -69
114 -34 187 30 62 99 92 167 74z m-2188 -131 l0 -120 -500 0 -500 0 0 120 0
120 500 0 500 0 0 -120z m2830 -535 l0 -205 -90 0 -90 0 0 205 0 205 90 0 90
0 0 -205z m-2602 -767 l4 -558 -56 0 -56 0 0 561 0 560 52 -3 52 -3 4 -557z
m800 -110 l2 -448 -55 0 -55 0 0 451 0 450 53 -3 52 -3 3 -447z m1252 -1008
l0 -100 -100 0 -100 0 0 100 0 100 100 0 100 0 0 -100z"/>
<path d="M11316 1911 c-17 -6 -8 -16 58 -65 43 -32 76 -60 73 -62 -3 -3 -39
-5 -81 -5 l-76 0 -1 -67 c-1 -76 -1 -76 1 -270 1 -79 -1 -146 -4 -149 -3 -4
-1 -12 6 -20 8 -10 8 -12 -4 -8 -21 8 -48 92 -48 148 l0 47 -217 0 -218 -1 27
-22 c14 -12 101 -83 192 -157 l165 -135 1 -162 c0 -90 -2 -163 -5 -163 -9 0
-305 200 -324 219 -19 19 -121 37 -121 21 0 -8 134 -110 145 -110 2 0 72 -50
155 -111 121 -90 150 -115 150 -135 0 -23 2 -24 80 -24 l80 0 2 -132 c1 -73 3
-176 4 -228 2 -52 3 -146 3 -207 l1 -113 1025 0 1025 0 2 213 3 212 60 0 60 0
3 -212 2 -213 385 0 385 0 0 148 c0 81 3 231 7 335 l6 187 59 0 58 0 0 -335 0
-335 895 0 895 0 -2 576 -3 576 -155 100 c-85 56 -159 101 -165 101 -18 1 -9
349 11 401 6 15 -190 16 -2215 16 l-2221 0 0 23 c0 16 -16 32 -61 61 -34 22
-63 45 -66 53 -6 14 -9 15 -37 4z m421 -262 c81 -30 116 -144 73 -230 -49 -95
-188 -116 -265 -40 -58 58 -64 80 -44 169 11 46 18 56 57 82 36 24 56 30 98
30 29 0 65 -5 81 -11z m3935 -130 c2 -72 1 -133 -1 -135 -2 -2 -289 -4 -637
-4 l-633 0 -3 98 c-2 53 -2 114 0 135 l3 37 634 0 634 0 3 -131z m-4082 -609
l0 -230 -110 0 -110 0 0 230 0 230 110 0 110 0 0 -230z"/>
<path d="M7298 1102 c-1 -5 -31 -27 -65 -51 -42 -27 -63 -48 -63 -61 0 -19 -9
-20 -337 -22 -186 -1 -1183 0 -2217 2 l-1879 3 7 -34 c4 -19 10 -110 13 -204
l5 -170 -171 -110 -171 -110 0 -172 0 -173 2325 0 2325 0 0 170 0 170 105 0
105 0 0 -170 0 -170 141 0 142 0 86 63 c47 35 111 80 141 100 30 20 71 50 90
66 l35 30 -47 1 c-41 0 -56 -6 -105 -43 -70 -53 -268 -186 -288 -194 -13 -4
-15 18 -15 155 l0 160 168 140 c92 76 177 144 190 151 49 26 19 31 -193 31
l-215 0 -1 -57 c0 -33 -8 -77 -19 -103 l-19 -45 -1 55 c0 30 -2 147 -3 260
l-2 205 -77 3 c-43 2 -78 6 -78 10 0 4 32 29 70 57 39 27 70 53 70 57 0 11
-47 10 -52 0z m-202 -275 c100 -83 84 -221 -32 -277 -84 -41 -184 -8 -223 74
-25 51 -26 77 -5 137 25 67 79 98 171 97 43 -1 59 -7 89 -31z m-2850 11 c9
-14 14 -225 7 -245 -4 -11 -126 -13 -639 -13 l-634 0 -1 33 c-1 84 3 222 7
229 9 13 1252 9 1260 -4z"/>
</g>
</svg>
