<?xml version="1.0" standalone="no"?>
<!DOCTYPE svg PUBLIC "-//W3C//DTD SVG 20010904//EN"
 "http://www.w3.org/TR/2001/REC-SVG-20010904/DTD/svg10.dtd">
<svg version="1.0" xmlns="http://www.w3.org/2000/svg"
 width="2032.000000pt" height="1380.000000pt" viewBox="0 0 2032.000000 2880.000000"
 preserveAspectRatio="xMidYMid meet">
<metadata>
Created by potrace 1.15, written by Peter Selinger 2001-2017
</metadata>
<g transform="translate(0.000000,2880.000000) scale(0.100000,-0.100000)"
fill="#7c29f0" stroke="none">
<path d="M11876 26686 c-110 -45 -201 -86 -203 -92 -2 -6 10 -46 27 -89 l31
-78 -21 -14 c-59 -41 -150 -127 -194 -182 -27 -33 -50 -61 -52 -61 -1 0 -39
16 -83 35 -79 33 -81 34 -91 14 -19 -34 -170 -390 -170 -399 0 -5 35 -23 78
-40 l77 -32 0 -189 0 -188 -35 -15 c-19 -8 -56 -24 -83 -35 l-47 -20 19 -48
c86 -219 145 -360 152 -367 6 -6 40 3 91 23 l81 34 21 -29 c37 -50 104 -123
158 -170 29 -26 59 -52 66 -59 12 -10 8 -26 -21 -94 l-36 -81 27 -14 c75 -37
394 -168 399 -163 3 4 20 39 37 79 l31 72 189 -1 189 0 33 -79 c20 -49 38 -78
46 -76 44 10 401 159 405 169 3 7 -9 47 -27 90 l-32 77 23 16 c44 29 130 109
181 167 28 32 54 62 58 66 4 5 40 -5 80 -22 40 -17 78 -31 85 -31 13 0 188
395 183 412 -2 5 -37 24 -78 42 l-74 32 1 189 2 189 75 31 c42 17 78 33 80 36
3 3 -33 99 -79 215 -63 154 -89 208 -100 206 -8 -2 -46 -16 -83 -32 l-67 -29
-40 47 c-53 63 -141 151 -189 188 l-39 30 37 84 c20 46 35 84 33 86 -7 6 -407
174 -415 174 -6 0 -25 -36 -43 -81 l-34 -80 -65 6 c-87 9 -218 9 -267 1 l-40
-7 -34 82 c-20 46 -39 84 -45 85 -5 1 -99 -35 -208 -80z m659 -458 c119 -35
208 -89 300 -182 89 -90 135 -161 171 -265 129 -371 -63 -771 -435 -905 -155
-56 -317 -56 -473 0 -367 133 -560 529 -437 899 63 189 248 378 431 440 147
51 300 55 443 13z"/>
<path d="M16130 25313 c-89 -41 -93 -42 -135 -57 -22 -8 -89 -35 -150 -60 -60
-25 -116 -46 -122 -46 -7 0 -13 -4 -13 -10 0 -5 -9 -10 -20 -10 -11 0 -20 -4
-20 -10 0 -5 -13 -10 -29 -10 -17 0 -32 -4 -36 -9 -3 -6 13 -54 36 -108 56
-133 57 -143 20 -168 -17 -11 -31 -26 -31 -33 0 -7 -4 -11 -9 -8 -18 12 -251
-211 -285 -272 -27 -48 -53 -52 -121 -22 -25 11 -65 29 -90 40 -41 18 -96 28
-83 14 3 -3 -9 -37 -28 -75 -19 -38 -34 -72 -34 -74 0 -4 -16 -40 -71 -161
-11 -22 -19 -45 -19 -50 0 -6 -13 -38 -30 -72 -16 -34 -30 -66 -30 -71 0 -5
-7 -22 -15 -37 -14 -27 -13 -29 3 -33 9 -2 19 -6 22 -10 3 -4 48 -25 100 -47
l95 -40 -2 -40 c-7 -147 -10 -390 -4 -447 4 -37 4 -72 1 -76 -5 -8 -88 -45
-174 -78 -26 -10 -50 -23 -53 -29 -3 -10 32 -107 72 -199 7 -16 30 -73 50
-125 20 -52 43 -108 50 -125 7 -16 21 -52 32 -80 23 -56 35 -59 108 -26 63 28
149 61 161 61 6 0 17 -11 24 -25 7 -14 17 -25 22 -25 4 0 8 -5 8 -11 0 -7 10
-20 22 -30 11 -11 18 -19 15 -19 -3 0 4 -11 16 -24 12 -13 42 -45 67 -72 25
-27 75 -73 110 -103 36 -30 75 -65 87 -78 22 -23 22 -26 8 -54 -9 -16 -13 -35
-9 -42 4 -7 3 -9 -1 -4 -10 9 -78 -141 -69 -154 3 -5 10 -7 15 -4 5 4 9 2 9
-3 0 -9 105 -57 125 -57 6 0 12 -2 15 -5 7 -8 145 -70 154 -70 5 0 38 -14 75
-31 36 -17 76 -35 89 -40 22 -9 71 -30 84 -36 8 -4 88 161 88 181 0 6 7 22 16
35 15 21 21 23 68 16 67 -10 120 -13 236 -15 91 -1 248 8 261 16 6 3 89 -185
89 -202 0 -4 7 -15 16 -25 15 -16 19 -17 44 -4 14 7 96 41 181 75 170 67 215
86 241 100 10 6 22 10 27 10 5 0 30 9 55 19 l45 20 -45 110 c-48 120 -51 136
-30 148 54 32 284 252 336 323 43 58 47 60 77 45 16 -7 68 -30 117 -50 72 -31
90 -35 97 -24 5 8 9 20 9 27 0 6 5 12 10 12 6 0 10 6 10 14 0 7 12 39 26 70
14 31 22 61 18 67 -4 8 -3 9 4 5 7 -4 13 -2 13 3 2 19 5 25 37 94 18 37 32 72
32 76 0 5 11 32 25 59 14 28 25 55 25 61 0 6 9 26 19 45 l20 34 -32 15 c-33
15 -87 40 -169 75 -30 13 -46 26 -43 34 20 61 30 431 12 478 -20 53 -1 71 122
121 61 24 111 50 111 57 0 7 -4 20 -9 30 -5 9 -14 29 -20 45 -6 15 -15 37 -20
50 -6 12 -37 92 -71 177 -34 85 -70 174 -81 197 -10 24 -19 49 -19 57 0 8 -3
17 -7 19 -5 3 -55 -15 -113 -39 -58 -24 -114 -43 -125 -43 -13 0 -36 22 -65
61 -56 77 -219 242 -283 288 -45 32 -48 37 -42 67 3 18 17 57 31 88 14 31 27
61 28 68 1 7 8 22 15 35 11 20 10 26 -6 37 -10 8 -28 16 -41 20 -12 3 -52 19
-88 35 -35 17 -67 30 -69 30 -5 0 -24 8 -161 69 -39 17 -78 31 -87 31 -9 0
-17 4 -17 8 0 8 -99 47 -104 41 -7 -11 -65 -140 -81 -183 l-19 -49 -70 9 c-75
9 -354 12 -445 4 l-54 -5 -40 100 c-23 55 -45 103 -50 106 -5 4 -7 11 -3 17
13 21 -10 19 -64 -5z m582 -693 c18 -4 56 -13 83 -19 114 -26 285 -105 380
-176 81 -61 167 -146 224 -225 50 -67 131 -214 131 -236 0 -7 3 -14 8 -16 6
-3 39 -120 58 -213 21 -98 10 -382 -16 -420 -4 -5 -15 -37 -25 -70 -31 -104
-160 -333 -202 -358 -7 -4 -13 -15 -13 -22 0 -8 -7 -15 -15 -15 -9 0 -18 -7
-21 -15 -7 -16 -129 -118 -189 -155 -22 -14 -71 -41 -110 -58 -38 -18 -78 -37
-87 -42 -10 -6 -25 -10 -33 -10 -8 0 -23 -4 -33 -9 -51 -27 -313 -53 -397 -40
-141 23 -182 31 -200 39 -70 28 -129 50 -137 50 -6 0 -23 10 -40 21 -16 12
-50 32 -76 46 -50 26 -114 76 -173 133 -20 19 -45 41 -57 49 -11 8 -19 18 -17
22 3 4 -3 13 -12 20 -47 39 -178 276 -190 344 -1 11 -7 29 -12 40 -27 60 -36
129 -35 290 0 130 5 183 18 226 9 31 18 65 20 75 6 28 47 137 57 150 5 6 23
37 39 68 17 32 45 76 61 99 47 66 168 184 239 235 36 25 67 50 68 54 2 4 8 8
13 8 5 0 37 13 71 29 55 25 89 40 108 46 3 1 12 4 20 8 25 9 122 35 170 45 57
12 278 13 322 2z"/>
<path d="M11835 21001 c-155 -64 -152 -60 -119 -144 l18 -47 -24 -16 c-14 -9
-59 -52 -102 -95 l-76 -79 -58 26 c-31 14 -60 21 -64 17 -18 -21 -133 -307
-125 -310 6 -2 32 -14 60 -26 l49 -23 1 -142 0 -141 -57 -21 c-32 -12 -58 -27
-58 -34 0 -6 26 -77 58 -156 65 -161 60 -156 144 -123 l48 18 16 -25 c9 -14
52 -60 95 -102 l79 -77 -25 -57 c-14 -32 -22 -61 -18 -64 12 -10 304 -132 308
-128 2 1 14 28 27 58 l24 54 142 1 141 0 22 -57 c12 -32 27 -58 33 -58 7 0 77
26 156 58 161 65 157 60 124 145 l-18 47 24 16 c14 9 60 52 102 95 l77 79 57
-25 c32 -14 61 -22 64 -18 11 14 133 303 129 307 -2 3 -28 15 -58 28 l-55 24
0 142 -1 141 58 22 c31 12 57 27 57 34 0 17 -109 287 -121 299 -5 6 -30 1 -63
-13 l-55 -22 -100 100 -100 101 25 57 c14 31 21 59 17 63 -13 12 -303 133
-307 129 -2 -2 -15 -28 -28 -58 l-24 -55 -140 0 -141 -1 -22 58 c-15 38 -28
57 -39 56 -9 0 -80 -26 -157 -58z m495 -337 c91 -26 166 -72 235 -146 105
-110 149 -220 147 -368 -1 -152 -60 -281 -177 -388 -101 -92 -205 -132 -345
-132 -148 0 -254 40 -359 135 -115 105 -172 234 -172 390 0 151 44 258 148
366 140 145 330 197 523 143z"/>
<path d="M17670 20544 c-36 -8 -74 -18 -85 -23 -11 -5 -33 -12 -49 -16 -42 -9
-173 -76 -237 -121 -70 -48 -169 -144 -225 -217 -24 -31 -44 -60 -44 -63 0 -3
-13 -24 -28 -47 -47 -70 -105 -234 -123 -352 -20 -126 4 -402 39 -460 4 -5 8
-14 9 -20 9 -37 29 -85 35 -85 5 0 8 -7 8 -15 0 -25 51 -111 120 -199 45 -58
156 -158 230 -207 73 -49 230 -127 230 -114 0 2 16 -3 35 -11 19 -8 38 -13 42
-12 5 0 15 -1 23 -5 16 -6 78 -14 180 -23 76 -7 91 -20 79 -67 -23 -90 -88
-352 -95 -384 -2 -12 -9 -35 -15 -50 -6 -16 -14 -47 -18 -71 -7 -35 -6 -40 5
-31 8 6 14 18 14 25 0 8 5 14 10 14 11 0 59 50 60 62 0 4 19 26 43 50 23 24
74 82 112 128 106 128 171 204 325 380 30 34 64 75 75 90 10 15 34 38 52 50
59 41 179 166 226 237 56 84 100 163 91 163 -4 0 -1 6 5 14 22 26 62 182 70
272 8 93 7 227 -3 288 -17 109 -70 259 -112 321 -13 20 -24 38 -24 41 0 17
-76 110 -151 185 -119 119 -154 141 -354 230 -34 15 -137 39 -145 34 -5 -3
-10 0 -12 7 -6 18 -314 20 -398 2z"/>
<path d="M10396 19905 c-142 -39 -271 -142 -334 -266 -78 -154 -79 -320 -3
-474 146 -294 501 -383 777 -194 l41 28 132 -134 c98 -98 134 -129 137 -117 3
10 10 26 16 36 8 16 -7 36 -113 142 l-122 122 36 55 c200 301 42 712 -308 802
-71 18 -192 18 -259 0z m260 -80 c127 -38 251 -161 293 -292 34 -105 28 -223
-16 -315 -41 -86 -83 -139 -148 -184 -191 -131 -430 -105 -586 64 -158 173
-157 422 3 597 58 64 114 99 196 126 70 22 191 24 258 4z"/>
<path d="M2850 19333 c-187 -32 -401 -158 -517 -305 -224 -281 -255 -655 -80
-968 51 -91 213 -258 299 -309 151 -88 262 -116 453 -115 132 1 160 4 233 27
230 72 409 220 516 427 77 149 91 209 91 400 0 164 -1 166 -36 267 -44 124
-101 222 -185 311 -115 125 -286 222 -451 257 -63 14 -263 18 -323 8z m-350
-853 l0 -220 -30 0 -30 0 0 220 0 220 30 0 30 0 0 -220z m271 208 c51 -17 88
-48 117 -98 48 -82 30 -202 -40 -267 -40 -37 -98 -55 -195 -61 l-93 -5 0 222
0 221 89 0 c48 0 103 -5 122 -12z m429 -18 l0 -29 -77 -3 -78 -3 -3 -57 -3
-58 81 0 80 0 0 -35 0 -35 -80 0 -80 0 0 -60 0 -60 80 0 80 0 0 -35 0 -36
-112 3 -113 3 -3 204 c-2 112 -1 209 2 217 4 11 31 14 116 14 l110 0 0 -30z
m333 -172 c41 -112 79 -211 82 -220 6 -15 1 -18 -28 -18 -33 0 -37 3 -53 45
l-17 45 -88 0 -87 0 -14 -42 c-13 -37 -19 -43 -46 -46 -21 -2 -32 1 -32 10 0
7 34 106 77 221 73 198 78 207 103 207 25 0 30 -10 103 -202z"/>
<path d="M2630 18485 l0 -155 53 0 c96 0 167 65 167 153 0 91 -77 157 -181
157 l-39 0 0 -155z"/>
<path d="M7918 18823 l-3 -108 -40 -13 c-56 -18 -76 -42 -82 -95 -5 -41 -2
-49 25 -77 17 -16 45 -33 62 -36 17 -4 33 -10 35 -14 3 -4 5 -53 6 -109 l1
-101 98 0 97 0 17 44 c28 73 131 123 166 81 7 -8 19 -15 26 -15 8 0 26 -25 41
-55 l27 -55 93 0 93 0 0 96 c0 107 9 134 46 134 14 0 34 5 45 10 24 13 49 61
49 94 0 36 -44 82 -93 99 l-42 14 -3 106 -3 107 -93 0 -92 0 -23 -50 c-23 -52
-60 -80 -110 -86 -48 -5 -110 44 -128 101 l-10 30 -101 3 -101 3 -3 -108z"/>
<path d="M9186 18453 c-3 -10 -75 -281 -161 -603 -86 -321 -159 -588 -161
-592 -3 -4 -14 -8 -25 -8 -30 0 -319 -58 -428 -86 -354 -91 -561 -201 -592
-317 -9 -34 -7 -46 15 -92 l26 -52 0 -1271 0 -1272 33 0 c68 1 193 30 252 59
61 30 66 31 204 31 l141 0 0 -176 c0 -197 8 -231 64 -265 30 -18 67 -19 862
-19 l831 0 33 23 c66 44 75 72 78 265 l4 172 129 0 129 0 0 -172 c0 -148 3
-179 19 -215 36 -78 -21 -73 909 -73 l829 0 33 23 c71 48 75 59 78 258 l3 179
219 0 c200 0 224 -2 272 -21 29 -12 83 -32 121 -45 l67 -23 0 1345 c0 1140 -2
1349 -14 1372 -32 61 -142 139 -255 182 -37 14 -63 29 -66 41 -4 10 -11 19
-16 19 -5 0 -8 3 -7 8 5 16 -67 189 -76 184 -86 -46 -156 -64 -156 -39 0 6
-13 26 -28 44 -15 17 -34 39 -43 50 -8 10 -45 44 -82 76 -75 66 -76 70 -30
156 13 24 22 45 21 46 -2 0 -59 25 -128 54 -69 29 -145 62 -169 73 -24 10 -44
18 -45 16 -1 -2 -16 -32 -33 -68 l-30 -65 -174 1 -174 2 -29 70 -29 69 -56
-23 c-31 -12 -105 -42 -164 -66 -60 -24 -111 -49 -114 -56 -3 -7 -1 -23 5 -35
19 -40 33 -94 27 -108 -4 -8 -31 -34 -61 -59 -31 -25 -70 -57 -87 -72 l-32
-26 -315 10 c-173 6 -316 12 -317 13 -2 1 8 39 21 86 13 46 47 172 76 279 28
107 61 226 72 263 10 38 17 71 14 74 -3 3 -45 16 -93 29 -48 13 -145 39 -215
58 -71 19 -130 31 -132 28 -2 -4 -7 -21 -10 -38 l-7 -30 103 -28 c231 -63 258
-71 258 -81 0 -5 -12 -53 -26 -105 -14 -52 -36 -138 -50 -190 -31 -117 -48
-179 -118 -440 -68 -252 -71 -280 -20 -225 15 16 29 23 40 18 12 -4 15 -3 10
5 -4 8 2 16 17 21 14 6 28 15 32 20 3 6 15 11 26 11 10 0 19 5 19 10 0 12 49
34 68 31 7 -1 11 4 10 11 -2 8 6 13 19 12 12 0 21 4 20 10 -1 6 4 10 11 8 6
-1 12 2 12 8 0 5 26 22 58 38 101 52 120 62 132 77 7 8 18 15 24 15 6 0 4 -5
-4 -10 -12 -8 -11 -10 8 -10 12 0 22 -5 22 -11 0 -6 6 -9 14 -6 13 5 46 -45
46 -70 0 -8 -84 -73 -95 -73 -17 0 2 19 40 39 48 25 50 28 36 50 -7 11 -10 9
-16 -8 -5 -17 -27 -28 -38 -18 -2 1 -15 -10 -31 -26 -15 -15 -32 -24 -38 -21
-7 4 -8 2 -4 -4 7 -12 -3 -16 -39 -13 -17 2 -17 0 -5 -8 8 -6 12 -11 8 -12 -5
-1 -11 -3 -15 -4 -5 -2 -18 -6 -30 -10 -12 -4 -24 -14 -27 -22 -3 -8 -10 -11
-16 -8 -5 3 -10 2 -10 -3 0 -10 -60 -38 -72 -34 -5 1 -8 -2 -8 -8 0 -5 -7 -10
-16 -10 -8 0 -12 -5 -9 -10 4 -6 3 -10 -2 -9 -24 4 -43 -3 -43 -15 0 -12 -38
-33 -48 -27 -1 1 -10 -5 -18 -14 -9 -8 -20 -13 -25 -10 -5 4 -9 1 -9 -4 0 -6
-7 -11 -15 -11 -8 0 -15 -4 -15 -10 0 -11 -60 -44 -60 -33 0 5 -5 1 -10 -7 -5
-8 -13 -16 -17 -16 -34 -6 -52 -18 -44 -28 9 -11 -9 -97 -52 -246 -9 -30 -25
-91 -37 -135 -11 -44 -28 -106 -37 -137 l-16 -58 -77 0 c-187 0 -735 42 -964
75 -85 12 -332 69 -344 80 -2 1 40 164 93 361 53 198 141 526 195 729 199 743
227 845 232 850 2 3 27 -1 54 -9 27 -8 109 -30 181 -49 l133 -35 9 36 c6 20 9
37 7 39 -6 6 -410 113 -428 113 -9 0 -19 -8 -22 -17z m2744 -1077 c14 -2 45
-9 70 -17 25 -7 51 -12 58 -10 6 1 12 -3 12 -9 0 -5 6 -10 13 -10 9 0 119 -69
135 -85 4 -4 -14 -2 -158 20 -98 14 -437 54 -470 55 -12 1 -12 2 2 10 20 12
134 47 168 52 28 4 132 1 170 -6z m-30 -226 c161 -31 294 -155 330 -308 30
-129 -2 -260 -89 -369 -23 -29 -37 -53 -31 -53 29 0 268 41 285 49 25 12 66
20 127 25 l47 5 25 -52 c52 -112 50 -70 56 -1072 3 -517 9 -946 13 -952 6 -10
-12 -13 -82 -13 l-90 0 -3 153 c-3 144 -5 156 -28 189 -53 78 8 73 -860 76
-426 2 -799 0 -828 -3 -66 -8 -123 -54 -140 -113 -7 -22 -12 -98 -12 -171 l0
-131 -130 0 -130 0 0 138 c0 155 -12 197 -69 245 l-33 27 -830 0 c-818 0 -831
0 -864 -20 -59 -37 -74 -86 -74 -248 l0 -142 -94 0 -93 0 -9 83 c-4 45 -8 289
-9 543 l0 461 30 49 c24 37 45 56 90 79 l59 30 665 6 c628 5 673 7 791 28 422
74 747 212 974 412 60 53 168 178 162 187 -2 4 12 7 32 8 21 1 69 5 107 9 39
5 80 8 93 8 12 -1 22 2 22 6 0 4 16 5 36 3 39 -5 314 28 314 37 -1 3 -26 22
-56 41 -66 42 -115 99 -152 177 -24 52 -27 69 -27 168 0 99 3 116 27 168 65
138 217 240 369 246 15 1 50 -4 79 -9z m-1675 -2447 c9 -9 21 -27 26 -40 5
-13 9 -180 9 -369 0 -342 -3 -376 -34 -396 -6 -4 -370 -8 -808 -8 l-797 0 -15
22 c-14 19 -16 74 -16 397 0 334 2 376 17 393 15 17 54 18 809 18 724 0 794
-1 809 -17z m2120 11 c42 -16 45 -45 45 -421 0 -308 -2 -362 -16 -381 l-15
-22 -797 0 c-438 0 -802 4 -808 8 -31 21 -34 54 -34 414 0 313 2 367 16 386
l15 22 789 0 c433 0 796 -3 805 -6z"/>
<path d="M11765 17120 c-68 -8 -105 -21 -146 -51 -26 -18 -28 -24 -22 -64 4
-35 1 -49 -16 -71 -11 -15 -21 -37 -21 -49 0 -27 26 -81 31 -66 2 6 18 -15 34
-46 23 -43 38 -60 60 -67 48 -14 79 -29 101 -48 20 -18 21 -18 16 12 -2 18
-10 30 -19 30 -10 0 -12 6 -8 20 6 20 -9 28 -20 10 -11 -18 -43 -11 -50 10
-11 34 18 66 67 74 33 5 45 3 54 -9 15 -20 24 -19 24 1 0 32 137 143 159 129
7 -4 11 4 11 18 0 20 6 26 30 29 23 3 30 1 26 -9 -3 -7 1 -13 9 -13 8 0 13 9
12 23 -4 34 -26 67 -41 61 -7 -3 -16 2 -19 10 -9 24 -36 19 -46 -7 -5 -13 -21
-31 -35 -40 -31 -21 -36 -21 -36 -3 0 8 -9 18 -20 21 -11 3 -20 13 -20 21 0
18 63 46 84 38 18 -7 22 11 5 22 -6 4 -29 7 -50 7 -21 0 -36 4 -33 8 6 10 -33
10 -121 -1z"/>
<path d="M11860 16648 c-9 -7 -14 -21 -12 -30 2 -9 -3 -27 -11 -40 -7 -13 -13
-30 -12 -38 2 -31 38 -88 66 -104 16 -9 29 -23 29 -31 0 -10 11 -12 43 -8 63
8 102 30 153 86 l45 51 -39 15 c-22 9 -50 28 -62 44 -12 15 -29 27 -37 27 -9
0 -24 6 -32 14 -23 21 -112 30 -131 14z"/>
<path d="M7234 18251 c-2 -2 -4 -53 -4 -113 0 -104 -1 -108 -21 -108 -31 0
-89 -39 -100 -67 -14 -37 -11 -86 7 -111 18 -26 65 -52 94 -52 19 0 20 -6 20
-110 0 -107 1 -110 23 -111 54 -2 95 -2 143 -1 49 2 52 3 58 33 3 17 21 46 40
65 28 28 42 34 76 34 34 0 48 -6 76 -34 19 -19 37 -48 40 -64 l6 -31 99 -3
c55 -2 104 -1 109 0 6 2 10 51 10 113 0 105 1 109 21 109 26 0 86 36 98 58 5
10 12 36 16 58 6 39 4 43 -32 73 -20 17 -52 34 -70 37 l-32 6 -3 110 -3 111
-97 -1 c-54 0 -102 -1 -107 -1 -5 -1 -11 -15 -15 -32 -3 -17 -22 -47 -41 -66
-33 -33 -39 -35 -81 -30 -55 6 -89 35 -109 93 l-13 39 -102 0 c-56 0 -104 -2
-106 -4z"/>
<path d="M8277 18209 c-28 -16 -49 -67 -45 -111 l3 -40 -55 -20 c-30 -10 -66
-24 -80 -31 -23 -10 -30 -13 -53 -16 -4 0 -1 -14 8 -31 8 -16 16 -33 16 -37 1
-50 36 -112 60 -106 25 7 79 -13 111 -40 53 -46 42 -141 -22 -189 l-27 -20 19
-51 c11 -29 23 -54 26 -57 4 -3 7 -11 8 -17 1 -7 2 -20 3 -28 1 -14 17 -15 51
-2 8 3 45 16 81 28 l66 23 36 -41 c34 -37 41 -41 82 -39 62 2 85 27 88 95 l3
54 60 28 c32 16 64 29 70 29 7 0 23 6 36 13 l25 12 -22 63 c-12 34 -25 65 -28
69 -4 3 -7 14 -7 23 0 12 -8 15 -34 12 -67 -8 -146 56 -146 118 0 28 23 70 54
99 27 26 32 49 17 79 -5 9 -13 26 -17 37 -10 26 -9 26 -18 58 -5 15 -11 27
-15 27 -3 0 -42 -14 -86 -30 -96 -36 -108 -37 -124 -7 -25 47 -100 71 -144 46z"/>
<path d="M6915 11039 c-38 -4 -170 -7 -291 -8 l-222 -1 -59 -67 c-50 -58 -225
-265 -727 -862 -103 -122 -368 -437 -639 -758 l-187 -221 -40 -394 c-22 -216
-52 -503 -65 -638 -14 -135 -32 -310 -40 -390 -9 -80 -51 -494 -95 -920 -44
-426 -88 -863 -99 -970 -11 -107 -38 -370 -60 -585 -44 -431 -79 -765 -117
-1135 -14 -135 -43 -418 -64 -630 -22 -212 -53 -518 -70 -680 -17 -162 -35
-338 -40 -391 -5 -53 -25 -249 -44 -435 -20 -186 -47 -451 -61 -589 -57 -554
-66 -646 -80 -780 -39 -378 -55 -537 -55 -560 l0 -25 6625 0 6625 0 0 23 c0
12 -9 108 -20 212 -18 180 -44 431 -90 880 -11 110 -32 310 -46 445 -14 135
-34 331 -44 435 -11 105 -56 543 -100 975 -44 432 -85 828 -90 880 -5 52 -21
203 -34 335 -28 264 -66 634 -97 935 -11 107 -29 283 -40 390 -11 107 -55 544
-99 970 -44 426 -88 863 -99 970 -11 107 -30 285 -41 395 -11 110 -32 310 -45
445 -45 436 -65 633 -76 735 l-12 99 -670 796 c-369 437 -718 851 -776 920
-174 208 -142 187 -295 197 -72 4 -142 7 -156 6 -14 0 -518 -4 -1120 -8
l-1094 -8 42 -38 43 -38 229 -3 c125 -2 231 -6 235 -10 4 -4 -5 -119 -19 -255
-14 -136 -33 -313 -41 -393 -9 -80 -33 -314 -55 -520 -22 -206 -44 -418 -50
-470 -5 -52 -30 -288 -55 -525 -25 -236 -55 -515 -66 -620 -10 -104 -44 -424
-75 -710 -30 -286 -61 -583 -69 -660 -8 -77 -26 -246 -40 -375 -13 -129 -34
-323 -45 -430 -11 -107 -36 -341 -55 -520 -38 -354 -81 -760 -150 -1420 -24
-234 -65 -616 -89 -850 -25 -234 -79 -747 -121 -1140 -41 -393 -79 -742 -83
-775 -8 -56 -9 -58 -15 -25 -3 19 -22 246 -42 505 -20 259 -56 727 -80 1040
-87 1122 -95 1221 -100 1285 -30 368 -64 816 -100 1280 -8 102 -28 361 -45
575 -17 215 -37 473 -45 575 -36 461 -89 1153 -100 1280 -20 253 -55 712 -55
729 0 11 43 74 95 140 52 67 95 125 95 130 0 6 -675 1064 -694 1088 0 0 -100
-143 -221 -320 -121 -177 -262 -382 -313 -457 -52 -74 -105 -152 -119 -172
l-25 -38 126 -193 c125 -193 126 -193 120 -242 -3 -28 -25 -390 -49 -805 -44
-736 -98 -1639 -170 -2835 -19 -324 -40 -664 -45 -755 -5 -91 -23 -390 -40
-665 -16 -275 -34 -579 -40 -675 -6 -96 -15 -238 -20 -315 -5 -77 -17 -281
-27 -454 -9 -172 -20 -303 -24 -290 -4 13 -19 137 -33 274 -48 461 -75 718
-100 955 -14 129 -30 278 -36 330 -9 92 -215 2047 -306 2900 -24 234 -51 490
-60 570 -8 80 -30 291 -49 470 -52 486 -164 1551 -175 1660 -6 52 -19 178 -30
280 -21 195 -58 545 -116 1100 -19 184 -46 435 -59 558 -13 122 -22 228 -20
235 14 36 8 36 -855 44 -465 4 -876 5 -915 2z"/>
</g>
</svg>
